<svg viewBox="0 0 800 600" xmlns="http://www.w3.org/2000/svg">
  <!-- 天空背景 -->
  <defs>
    <linearGradient id="skyGradient" x1="0%" y1="0%" x2="0%" y2="100%">
      <stop offset="0%" style="stop-color:#2C3E50" />
      <stop offset="30%" style="stop-color:#663399" />
      <stop offset="60%" style="stop-color:#34495E" />
      <stop offset="100%" style="stop-color:#4A5568" />
    </linearGradient>
    <linearGradient id="groundGradient" x1="0%" y1="0%" x2="0%" y2="100%">
      <stop offset="0%" style="stop-color:#3F4F5F" />
      <stop offset="50%" style="stop-color:#2B3B4B" />
      <stop offset="100%" style="stop-color:#1A2A3A" />
    </linearGradient>
  </defs>

  <!-- 天空 -->
  <rect width="800" height="300" fill="url(#skyGradient)" />

  <!-- 远山剪影 -->
  <polygon points="0,250 100,180 200,200 300,150 400,170 500,140 600,160 700,130 800,150 800,300 0,300" fill="#2C3E50"
    opacity="0.8" />

  <!-- 地面 -->
  <rect x="0" y="300" width="800" height="300" fill="url(#groundGradient)" />

  <!-- 星星 -->
  <circle cx="100" cy="80" r="2" fill="#FFD700" opacity="0.8" />
  <circle cx="200" cy="50" r="1.5" fill="#FFD700" opacity="0.6" />
  <circle cx="350" cy="40" r="1" fill="#FFD700" opacity="0.7" />
  <circle cx="650" cy="70" r="2" fill="#FFD700" opacity="0.8" />
  <circle cx="750" cy="120" r="1.5" fill="#FFD700" opacity="0.6" />

  <!-- 月亮 -->
  <circle cx="650" cy="100" r="25" fill="#F5F5DC" opacity="0.7" />

  <!-- 近处的山脉 -->
  <polygon points="0,350 80,280 160,320 240,260 320,300 400,250 480,290 560,240 640,280 720,230 800,270 800,400 0,400"
    fill="#1F2937" />
  <polygon
    points="50,380 120,320 190,360 260,300 330,340 400,290 470,330 540,280 610,320 680,270 750,310 800,300 800,420 0,420"
    fill="#111827" />

  <!-- 河流 -->
  <path d="M 0,450 Q 150,430 300,450 Q 450,470 600,450 Q 750,430 800,450" stroke="#2F4F4F" stroke-width="12"
    fill="none" />
  <path d="M 0,453 Q 150,433 300,453 Q 450,473 600,453 Q 750,433 800,453" stroke="#4682B4" stroke-width="6" fill="none"
    opacity="0.6" />

  <!-- 树木 -->
  <!-- 大树1 -->
  <rect x="180" y="380" width="12" height="60" fill="#2F1B14" />
  <circle cx="186" cy="380" r="30" fill="#1C4E1C" />
  <circle cx="175" cy="370" r="20" fill="#2E7D32" />
  <circle cx="200" cy="375" r="25" fill="#2E7D32" />

  <!-- 大树2 -->
  <rect x="450" y="390" width="10" height="50" fill="#2F1B14" />
  <circle cx="455" cy="390" r="25" fill="#1C4E1C" />
  <circle cx="445" cy="380" r="18" fill="#2E7D32" />
  <circle cx="468" cy="385" r="20" fill="#2E7D32" />

  <!-- 小树丛 -->
  <rect x="320" y="420" width="8" height="35" fill="#2F1B14" />
  <circle cx="324" cy="420" r="20" fill="#1C4E1C" />
  <rect x="600" y="430" width="6" height="25" fill="#2F1B14" />
  <circle cx="603" cy="430" r="15" fill="#2E7D32" />
  <rect x="720" y="425" width="7" height="30" fill="#2F1B14" />
  <circle cx="723" cy="425" r="18" fill="#1C4E1C" />

  <!-- 草丛 -->
  <ellipse cx="120" cy="440" rx="25" ry="10" fill="#2E7D32" opacity="0.8" />
  <ellipse cx="280" cy="460" rx="20" ry="8" fill="#2E7D32" opacity="0.7" />
  <ellipse cx="500" cy="470" rx="30" ry="12" fill="#2E7D32" opacity="0.8" />
  <ellipse cx="650" cy="480" rx="22" ry="9" fill="#2E7D32" opacity="0.7" />

  <!-- 猫咪们 -->
  <!-- 猫咪1 - 在草地上玩耍 (现在是黑猫) -->
  <g transform="translate(150,420)">
    <ellipse cx="0" cy="0" rx="22" ry="14" fill="#1C1C1C" />
    <circle cx="-16" cy="-10" r="14" fill="#1C1C1C" />
    <polygon points="-28,-18 -22,-28 -16,-18" fill="#1C1C1C" />
    <polygon points="-16,-18 -10,-28 -4,-18" fill="#1C1C1C" />
    <path d="M 20,2 Q 38,-8 45,8" stroke="#1C1C1C" stroke-width="7" fill="none" />
    <circle cx="-20" cy="-12" r="2" fill="#FFD700" />
    <circle cx="-12" cy="-12" r="2" fill="#FFD700" />
    <!-- 小鼻子 -->
    <circle cx="-16" cy="-8" r="1" fill="#000" />
  </g>

  <!-- 猫咪2 - 在河边 -->
  <g transform="translate(350,440)">
    <ellipse cx="0" cy="0" rx="20" ry="12" fill="#2F4F4F" />
    <circle cx="-14" cy="-8" r="12" fill="#2F4F4F" />
    <polygon points="-24,-16 -20,-24 -16,-16" fill="#2F4F4F" />
    <polygon points="-16,-16 -12,-24 -8,-16" fill="#2F4F4F" />
    <path d="M 18,0 Q 32,10 35,25" stroke="#2F4F4F" stroke-width="6" fill="none" />
    <circle cx="-18" cy="-10" r="2" fill="#000" />
    <circle cx="-10" cy="-10" r="2" fill="#000" />
    <circle cx="-14" cy="-6" r="1" fill="#000" />
  </g>

  <!-- 猫咪3 - 在山坡上眺望 -->
  <g transform="translate(480,360)">
    <ellipse cx="0" cy="0" rx="18" ry="11" fill="#FFFFFF" />
    <circle cx="-12" cy="-7" r="11" fill="#FFFFFF" />
    <polygon points="-21,-13 -17,-21 -13,-13" fill="#FFFFFF" />
    <polygon points="-13,-13 -9,-21 -5,-13" fill="#FFFFFF" />
    <path d="M 16,0 Q 28,-5 32,8" stroke="#FFFFFF" stroke-width="5" fill="none" />
    <circle cx="-15" cy="-9" r="1.5" fill="#000" />
    <circle cx="-9" cy="-9" r="1.5" fill="#000" />
    <circle cx="-12" cy="-5" r="0.8" fill="#000" />
  </g>

  <!-- 猫咪4 - 在追逐什么 -->
  <g transform="translate(550,470)">
    <ellipse cx="0" cy="0" rx="16" ry="10" fill="#654321" />
    <circle cx="-10" cy="-6" r="10" fill="#654321" />
    <polygon points="-18,-12 -15,-20 -11,-12" fill="#654321" />
    <polygon points="-11,-12 -7,-20 -3,-12" fill="#654321" />
    <path d="M 14,0 Q 25,8 30,-2" stroke="#654321" stroke-width="4" fill="none" />
    <circle cx="-13" cy="-8" r="1.5" fill="#000" />
    <circle cx="-7" cy="-8" r="1.5" fill="#000" />
    <circle cx="-10" cy="-4" r="0.8" fill="#000" />
  </g>

  <!-- 猫咪5 - 坐着休息 -->
  <g transform="translate(250,480)">
    <ellipse cx="0" cy="0" rx="20" ry="15" fill="#4B0082" />
    <circle cx="-12" cy="-8" r="12" fill="#4B0082" />
    <polygon points="-22,-16 -18,-24 -14,-16" fill="#4B0082" />
    <polygon points="-14,-16 -10,-24 -6,-16" fill="#4B0082" />
    <path d="M 18,5 Q 30,20 25,35" stroke="#4B0082" stroke-width="6" fill="none" />
    <circle cx="-16" cy="-10" r="2" fill="#000" />
    <circle cx="-8" cy="-10" r="2" fill="#000" />
    <circle cx="-12" cy="-6" r="1" fill="#000" />
  </g>

  <!-- 一些岩石 -->
  <ellipse cx="80" cy="470" rx="15" ry="8" fill="#2F2F2F" />
  <ellipse cx="400" cy="490" rx="20" ry="10" fill="#2F2F2F" />
  <ellipse cx="680" cy="485" rx="18" ry="9" fill="#2F2F2F" />

  <!-- 一些小的植物点缀 -->
  <circle cx="200" cy="500" r="3" fill="#2E7D32" />
  <circle cx="360" cy="510" r="2.5" fill="#2E7D32" />
  <circle cx="520" cy="505" r="3.5" fill="#2E7D32" />
  <circle cx="750" cy="495" r="2" fill="#2E7D32" />
</svg>